Coordinates
version=1
nRows=5
nColumns=40
inDegrees=yes

Units are S.I. units (second, meters, Newtons, ...)
If the header above contains a line with 'inDegrees', this indicates whether rotational values are in degrees (yes) or radians (no).

endheader
time	pelvis_tilt	pelvis_list	pelvis_rotation	pelvis_tx	pelvis_ty	pelvis_tz	hip_flexion_r	hip_adduction_r	hip_rotation_r	knee_angle_r	knee_angle_r_beta	ankle_angle_r	subtalar_angle_r	mtp_angle_r	hip_flexion_l	hip_adduction_l	hip_rotation_l	knee_angle_l	knee_angle_l_beta	ankle_angle_l	subtalar_angle_l	mtp_angle_l	lumbar_extension	lumbar_bending	lumbar_rotation	arm_flex_r	arm_add_r	arm_rot_r	elbow_flex_r	pro_sup_r	wrist_flex_r	wrist_dev_r	arm_flex_l	arm_add_l	arm_rot_l	elbow_flex_l	pro_sup_l	wrist_flex_l	wrist_dev_l
      1.40000000	     -2.64010612	      1.02169045	      0.91794263	     -0.30265085	      0.97220283	     -0.81046173	     11.07628695	      3.16579804	     -9.43447948	     18.12936566	      0.31641712	     -5.93717217	      0.00000000	      0.00000000	     15.53816890	     -8.93188298	     -0.03997366	     83.45718395	      1.45660264	     -7.95698198	      0.00000000	      0.00000000	     -6.53683408	      2.77613342	     -2.59821308	     76.21796137	    -20.08723078	     42.94362017	     67.30573262	     86.96803040	      0.00000000	      0.00000000	     74.00945676	     -9.30594026	     35.47184000	     60.79907244	     81.92930972	      0.00000000	      0.00000000
      1.40500000	     -2.71054860	      1.02142534	      0.94325246	     -0.30274073	      0.97198391	     -0.81032086	     11.20508343	      3.15373726	     -9.53953747	     18.22181114	      0.31803060	     -5.95737778	      0.00000000	      0.00000000	     15.47170868	     -8.92221974	     -0.07780566	     83.64139109	      1.45981767	     -7.88867271	      0.00000000	      0.00000000	     -6.51393529	      2.75204092	     -2.53399137	     76.24493014	    -20.22635666	     42.81624104	     67.43644051	     86.84253910	      0.00000000	      0.00000000	     74.25871259	     -9.12310212	     35.52492206	     60.40796210	     84.04308146	      0.00000000	      0.00000000
      1.41000000	     -2.97434934	      1.00579367	      0.91791391	     -0.30306338	      0.97139013	     -0.81015499	     11.68441176	      3.14689955	     -9.46640540	     18.59273070	      0.32450437	     -5.80766592	      0.00000000	      0.00000000	     15.65662810	     -8.95140044	     -0.15962254	     83.88550285	      1.46407822	     -8.04621021	      0.00000000	      0.00000000	     -6.29969182	      2.81518847	     -2.45456140	     76.62400030	    -20.44022294	     43.48272824	     67.52738679	     86.93615225	      0.00000000	      0.00000000	     74.36965250	     -9.18249168	     35.76877423	     60.67019420	     81.25964689	      0.00000000	      0.00000000
      1.41500000	     -2.86736229	      1.02962243	      0.95920837	     -0.30305152	      0.97143439	     -0.80995556	     11.53856655	      3.12502580	     -9.57982525	     18.51548441	      0.32315617	     -5.87203231	      0.00000000	      0.00000000	     15.36294714	     -8.93270244	     -0.20598382	     84.01102267	      1.46626895	     -7.87176940	      0.00000000	      0.00000000	     -6.43569570	      2.76457787	     -2.54254131	     76.49925434	    -20.13017860	     42.83401493	     67.23397849	     86.79931232	      0.00000000	      0.00000000	     74.54280537	     -9.14949981	     35.66818050	     60.34874753	     84.17742759	      0.00000000	      0.00000000
      1.42000000	     -2.93495533	      1.02357932	      0.97405064	     -0.30320625	      0.97116421	     -0.80979869	     11.68519284	      3.12312789	     -9.60642375	     18.65341075	      0.32556343	     -5.78132798	      0.00000000	      0.00000000	     15.29004902	     -8.98170149	     -0.31402388	     84.15799617	      1.46883412	     -7.84687494	      0.00000000	      0.00000000	     -6.42089845	      2.78482586	     -2.62079564	     76.66324629	    -19.98976191	     42.87241651	     67.07046852	     87.02262259	      0.00000000	      0.00000000	     74.69634730	     -9.22090110	     35.78767192	     60.36257988	     82.49702045	      0.00000000	      0.00000000
